{"title":"Sweet.Red.Bean.Paste.[An].2015.720p.BRRip.x264.AC3.HORiZON-ArtSu","uid":14224414,"size":1773422513,"categoryP":"video","categoryS":"movies","magnet":"?xt=urn:btih:96bf43fc46d7e1a056a7113b302a614bbfdca288&amp;dn=Sweet.Red.Bean.Paste.%5BAn%5D.2015.720p.BRRip.x264.AC3.HORiZON-ArtSu&amp;tr=udp%3A%2F%2Ftracker.leechers-paradise.org%3A6969&amp;tr=udp%3A%2F%2Fzer0day.ch%3A1337&amp;tr=udp%3A%2F%2Fopen.demonii.com%3A1337&amp;tr=udp%3A%2F%2Ftracker.coppersurfer.tk%3A6969&amp;tr=udp%3A%2F%2Fexodus.desync.com%3A6969","seeders":18,"leechers":4,"uploader":"noriegaRJ","files":1,"time":1460069871,"description":"Title: An aka Sweet Red Bean Paste\r\n\r\nRelease: Sweet.Red.Bean.Paste.[An].2015.720p.BRRip.x264.AC3.HORiZON-ArtSubs\r\n\r\n\r\nIMDB Link:                                                              \nhttp://www.imdb.com/title/tt4298958/\r\n\r\n\r\nPlot: The manager of a pancake stall finds himself confronted with an odd but sympathetic elderly woman looking for work. A taste of her homemade bean jelly convinces him to hire her, which starts a relationship that is about much more than just street food.\r\n\r\n\r\nENGLISH SUBTITLE INSIDE MKV FILE.\r\n\r\n\r\nGeneral\r\nComplete name                            : Sweet.Red.Bean.Paste.[An].2015.720p.BRRip.x264.AC3.HORiZON-ArtSubs\r\nFormat                                   : Matroska\r\nFormat version                           : Version 2\r\nFile size                                : 1.65 GiB\r\nDuration                                 : 1h 53mn\r\nOverall bit rate                         : 2 084 Kbps\r\nWriting application                      : HandBrake 0.9.5\r\nWriting library                          : libmkv 0.6.4.1\r\n\r\nVideo\r\nID                                       : 1\r\nFormat                                   : AVC\r\nFormat/Info                              : Advanced Video Codec\r\nFormat profile                           :   \r\nFormat settings, CABAC                   : Yes\r\nFormat settings, ReFrames                : 4 frames\r\nCodec ID                                 : V_MPEG4/ISO/AVC\r\nDuration                                 : 1h 53mn\r\nBit rate                                 : 1 452 Kbps\r\nWidth                                    : 1 280 pixels\r\nHeight                                   : 528 pixels\r\nDisplay aspect ratio                     : 2.40:1\r\nOriginal display aspect ratio            : 2.40:1\r\nFrame rate mode                          : Constant\r\nFrame rate                               : 23.976 fps\r\nColor space                              : YUV\r\nChroma subsampling                       : 4:2:0\r\nBit depth                                : 8 bits\r\nScan type                                : Progressive\r\nBits/(Pixel*Frame)                       : 0.090\r\nStream size                              : 1.11 GiB (67%)\r\nWriting library                          : x264 core 112\r\nLanguage                                 : English\r\nDefault                                  : Yes\r\nForced                                   : No\r\nColor primaries                          : BT.709\r\nTransfer characteristics                 : BT.709\r\nMatrix coefficients                      : BT.709\r\n\r\nAudio\r\nID                                       : 2\r\nFormat                                   : AC-3\r\nFormat/Info                              : Audio Coding 3\r\nMode extension                           : CM (complete main)\r\nFormat settings, Endianness              : Big\r\nCodec ID                                 : A_AC3\r\nDuration                                 : 1h 53mn\r\nBit rate mode                            : Constant\r\nBit rate                                 : 640 Kbps\r\nChannel count                            : 6 channels\r\nChannel positions                        : Front: L C R, Side: L R, LFE\r\nSampling rate                            : 48.0 KHz\r\nBit depth                                : 16 bits\r\nCompression mode                         : Lossy\r\nStream size                              : 519 MiB (31%)\r\nLanguage                                 : Japanese\r\nDefault                                  : Yes\r\nForced                                   : No\r\n\r\nText\r\nID                                       : 3\r\nFormat                                   : UTF-8\r\nCodec ID                                 : S_TEXT/UTF8\r\nCodec ID/Info                            : UTF-8 Plain Text\r\nLanguage                                 : English\r\nDefault                                  : No\r\nForced                                   : No\r\n\r\n\r\n\r\nThanks to those helping me seed. Leechers remember, the community depends on you. If nobody shares, the freebies go away. Remember, the only reason you can download this free movie is because others are generous enough to keep sharing it with you. If nobody shares, everybody loses, so even if its for an extra hour or two after you get it, remember, others want to see it too, and they can't without you.\r\n\r\n\r\nSEE MY OTHERS UPLOADS:                                                                                      \nhttp://thepiratebay.se/user/noriegaRJ\r\n\r\nAND SEE THIS ANOTHERS UPLOADS FROM &quot;HORiZON-ArtSubs&quot;:                                      \nhttp://thepiratebay.se/user/artsubs                                      \nhttp://thepiratebay.se/user/lletaif","torrent":{"xt":"urn:btih:96bf43fc46d7e1a056a7113b302a614bbfdca288","amp;dn":"Sweet.Red.Bean.Paste.%5BAn%5D.2015.720p.BRRip.x264.AC3.HORiZON-ArtSu","amp;tr":["udp%3A%2F%2Ftracker.leechers-paradise.org%3A6969","udp%3A%2F%2Fzer0day.ch%3A1337","udp%3A%2F%2Fopen.demonii.com%3A1337","udp%3A%2F%2Ftracker.coppersurfer.tk%3A6969","udp%3A%2F%2Fexodus.desync.com%3A6969"],"infoHash":"96bf43fc46d7e1a056a7113b302a614bbfdca288","infoHashBuffer":{"type":"Buffer","data":[150,191,67,252,70,215,225,160,86,167,17,59,48,42,97,75,191,220,162,136]},"announce":[],"urlList":[]}}